HIERARCHY
ROOT Hips
{
	OFFSET 0.000000 0.000000 0.000000
	CHANNELS 6 Xposition Yposition Zposition Yrotation Xrotation Zrotation
	JOINT Chest
	{
		OFFSET 0.000000 -0.009281 11.569106
		CHANNELS 3 Yrotation Xrotation Zrotation
		JOINT Chest2
		{
			OFFSET -0.000000 0.016865 9.269641
			CHANNELS 3 Yrotation Xrotation Zrotation
			JOINT Chest3
			{
				OFFSET -0.000000 0.000001 8.374491
				CHANNELS 3 Yrotation Xrotation Zrotation
				JOINT Chest4
				{
					OFFSET -0.000000 0.000001 8.374493
					CHANNELS 3 Yrotation Xrotation Zrotation
					JOINT Neck
					{
						OFFSET -0.000000 0.000002 12.152554
						CHANNELS 3 Yrotation Xrotation Zrotation
						JOINT Head
						{
							OFFSET -0.000000 0.040101 7.802319
							CHANNELS 3 Yrotation Xrotation Zrotation
							End Site
							{
								OFFSET -0.000000 0.020947 14.853096
							}
						}
					}
					JOINT RightCollar
					{
						OFFSET 2.894404 0.000001 6.791374
						CHANNELS 3 Yrotation Xrotation Zrotation
						JOINT RightShoulder
						{
							OFFSET 13.574684 0.000001 0.000000
							CHANNELS 3 Yrotation Xrotation Zrotation
							JOINT RightElbow
							{
								OFFSET 23.923903 0.000002 0.000000
								CHANNELS 3 Yrotation Xrotation Zrotation
								JOINT RightWrist
								{
									OFFSET 19.846718 0.012767 0.000000
									CHANNELS 3 Yrotation Xrotation Zrotation
									End Site
									{
										OFFSET 14.973145 0.000001 0.000000
									}
								}
							}
						}
					}
					JOINT LeftCollar
					{
						OFFSET -2.894404 0.000001 6.791374
						CHANNELS 3 Yrotation Xrotation Zrotation
						JOINT LeftShoulder
						{
							OFFSET -13.574684 -0.000001 0.000000
							CHANNELS 3 Yrotation Xrotation Zrotation
							JOINT LeftElbow
							{
								OFFSET -23.923903 -0.000002 0.000000
								CHANNELS 3 Yrotation Xrotation Zrotation
								JOINT LeftWrist
								{
									OFFSET -19.846718 0.012763 0.000000
									CHANNELS 3 Yrotation Xrotation Zrotation
									End Site
									{
										OFFSET -14.973145 -0.000001 0.000000
									}
								}
							}
						}
					}
				}
			}
		}
	}
	JOINT RightHip
	{
		OFFSET 9.469263 0.004643 0.045487
		CHANNELS 3 Yrotation Xrotation Zrotation
		JOINT RightKnee
		{
			OFFSET 0.000000 0.002661 -40.478676
			CHANNELS 3 Yrotation Xrotation Zrotation
			JOINT RightAnkle
			{
				OFFSET 0.000000 0.049106 -35.224068
				CHANNELS 3 Yrotation Xrotation Zrotation
				JOINT RightToe
				{
					OFFSET -0.000001 12.539529 -6.151390
					CHANNELS 3 Yrotation Xrotation Zrotation
					End Site
					{
						OFFSET -0.000001 5.044994 -1.291870
					}
				}
			}
		}
	}
	JOINT LeftHip
	{
		OFFSET -9.469263 0.004641 0.045487
		CHANNELS 3 Yrotation Xrotation Zrotation
		JOINT LeftKnee
		{
			OFFSET 0.000000 0.002661 -40.478676
			CHANNELS 3 Yrotation Xrotation Zrotation
			JOINT LeftAnkle
			{
				OFFSET 0.000000 0.049106 -35.224068
				CHANNELS 3 Yrotation Xrotation Zrotation
				JOINT LeftToe
				{
					OFFSET -0.000001 12.539529 -6.151390
					CHANNELS 3 Yrotation Xrotation Zrotation
					End Site
					{
						OFFSET -0.000001 5.044994 -1.291870
					}
				}
			}
		}
	}
}
MOTION
Frames: 7
Frame Time: 0.016667
11.208781 6.441845 83.031197 -5.249389 -1.977711 -109.187179 -0.274115 -2.670851 0.643461 -0.122386 -1.185274 0.306091 -0.122386 -1.185274 0.306091 -0.091192 -0.889017 0.229323 0.387637 -16.502449 -2.416874 -0.141322 5.516187 -4.348519 3.207930 24.384001 -6.004257 25.774248 47.901274 26.525478 39.732573 9.637306 73.682407 -2.427617 26.396197 22.608577 -3.517986 19.530494 -0.729002 -25.126470 46.356671 -28.046857 -23.824490 15.547720 -70.864790 0.176094 25.432399 -21.203673 -0.370361 -7.514911 -3.550453 1.293752 -2.264430 -6.342383 -0.488908 3.821065 2.785842 -0.006191 -0.052933 -0.000427 -0.699292 -8.250676 0.002717 0.857938 -1.533522 2.086819 -0.276434 4.338831 1.824106 -0.043011 -0.008510 -0.005052 
11.208166 6.440679 83.032143 -5.255560 -1.976084 -109.178545 -0.273459 -2.671135 0.637390 -0.121965 -1.185430 0.303210 -0.121965 -1.185430 0.303214 -0.090883 -0.889133 0.227164 0.384478 -16.520515 -2.397961 -0.139888 5.482986 -4.314182 3.190129 24.367400 -6.011055 25.713565 47.929333 26.490633 39.769347 9.672817 73.707549 -2.706715 26.367283 22.438064 -3.508805 19.524354 -0.720582 -25.084939 46.368880 -28.013420 -23.752580 15.542594 -70.786312 0.244854 25.442330 -21.200912 -0.370543 -7.521708 -3.553049 1.299158 -2.266353 -6.343446 -0.497522 3.824312 2.752876 -0.003888 -0.049723 -0.000582 -0.699836 -8.253618 0.017695 0.859580 -1.535566 2.069250 -0.277514 4.338770 1.807461 -0.036660 -0.005867 -0.005062 
11.209850 6.435275 83.032524 -5.261060 -1.974739 -109.174010 -0.270565 -2.671410 0.632488 -0.121200 -1.185418 0.300725 -0.121201 -1.185418 0.300726 -0.090313 -0.889123 0.225300 0.380738 -16.540826 -2.384698 -0.141478 5.445469 -4.290492 3.174190 24.301092 -6.008113 25.665138 47.990542 26.467615 39.892201 9.707553 73.760989 -2.930950 26.440863 22.297982 -3.492302 19.520536 -0.693540 -25.053455 46.349783 -27.983017 -23.780791 15.567704 -70.762153 0.320578 25.483881 -21.204841 -0.374829 -7.530579 -3.561587 1.307024 -2.265492 -6.332733 -0.504925 3.827183 2.742557 -0.002012 -0.047408 0.000713 -0.701130 -8.256983 0.021791 0.858262 -1.539362 2.069860 -0.273865 4.343001 1.815233 -0.033019 -0.005097 -0.005421 
11.213133 6.432722 83.032433 -5.265889 -1.974117 -109.174652 -0.270894 -2.670959 0.630835 -0.120964 -1.185456 0.299887 -0.120964 -1.185456 0.299890 -0.090139 -0.889151 0.224679 0.381226 -16.561628 -2.377618 -0.137407 5.407032 -4.276764 3.142344 24.251333 -6.025522 25.641104 47.996979 26.447753 40.144454 9.781125 73.874103 -2.978654 26.652421 22.133904 -3.466906 19.514090 -0.661747 -25.041838 46.307911 -27.974426 -23.895786 15.631158 -70.783422 0.356975 25.557919 -21.151136 -0.377850 -7.539004 -3.565526 1.315010 -2.266353 -6.324788 -0.511862 3.831831 2.725746 -0.001556 -0.045595 -0.000178 -0.703700 -8.262709 0.023248 0.861427 -1.542261 2.076607 -0.272833 4.347854 1.809863 -0.030653 -0.003684 -0.005733 
11.217070 6.429222 83.032394 -5.269637 -1.975401 -109.182555 -0.271884 -2.672503 0.632795 -0.121106 -1.186279 0.300684 -0.121106 -1.186279 0.300687 -0.090243 -0.889770 0.225270 0.385566 -16.579897 -2.376403 -0.128358 5.373284 -4.272609 3.111802 24.227822 -6.045379 25.608199 47.963743 26.425894 40.613282 9.894854 74.048526 -2.802175 27.034391 21.931370 -3.442308 19.524458 -0.634296 -25.018090 46.248816 -27.956847 -24.051692 15.714635 -70.830435 0.385872 25.627604 -21.009223 -0.380676 -7.545166 -3.558245 1.319922 -2.269067 -6.319335 -0.513779 3.835892 2.710071 -0.002046 -0.044036 -0.000546 -0.706826 -8.265171 0.017587 0.862895 -1.552669 2.089329 -0.266964 4.358764 1.822661 -0.029830 -0.003810 -0.005812 
11.221263 6.427005 83.032684 -5.273599 -1.978342 -109.194268 -0.271252 -2.675727 0.633830 -0.120625 -1.187960 0.301367 -0.120625 -1.187960 0.301367 -0.089880 -0.891030 0.225785 0.390395 -16.597503 -2.377514 -0.119245 5.340729 -4.272617 3.090674 24.178171 -6.046008 25.570845 47.950202 26.394438 41.400434 10.036044 74.322601 -2.440789 27.628713 21.650948 -3.424543 19.545128 -0.617708 -24.937354 46.195780 -27.889988 -24.218714 15.808691 -70.890369 0.428688 25.614750 -20.780876 -0.381004 -7.549833 -3.555847 1.320680 -2.274960 -6.308995 -0.513607 3.839789 2.714748 -0.002151 -0.042019 -0.000315 -0.703073 -8.268726 0.005443 0.857062 -1.565519 2.097404 -0.258491 4.371342 1.826366 -0.029674 -0.002892 -0.006564 
11.225605 6.421718 83.033096 -5.277142 -1.982535 -109.210196 -0.267258 -2.678336 0.633549 -0.119178 -1.189115 0.301457 -0.119178 -1.189115 0.301458 -0.088794 -0.891895 0.225854 0.392738 -16.617026 -2.379181 -0.114881 5.304529 -4.274491 3.057997 24.141906 -6.058803 25.541921 47.888543 26.368102 42.387228 10.217825 74.646352 -2.050650 28.342865 21.314423 -3.411525 19.547230 -0.603121 -24.841208 46.181877 -27.810109 -24.384095 15.901667 -70.934814 0.449172 25.464603 -20.520853 -0.378221 -7.553945 -3.551250 1.318424 -2.282550 -6.307115 -0.513039 3.844773 2.739217 -0.001386 -0.040132 0.000527 -0.700139 -8.271906 0.000170 0.849627 -1.578951 2.095512 -0.246165 4.384130 1.864325 -0.029592 -0.001871 -0.006436 
